<?xml version="1.0" encoding="UTF-8"?>
<svg id="Foro" xmlns="http://www.w3.org/2000/svg" viewBox="0 0 780.53 687.61">
  <defs>
    <style>
      .cls-1, .cls-2, .cls-3, .cls-4 {
        fill: #000;
      }

      .cls-1, .cls-5, .cls-6 {
        stroke-width: 0px;
      }

      .cls-2 {
        stroke-width: 2px;
      }

      .cls-2, .cls-7, .cls-3, .cls-4 {
        stroke-linecap: round;
      }

      .cls-2, .cls-7, .cls-3, .cls-4, .cls-8 {
        stroke-miterlimit: 10;
      }

      .cls-2, .cls-3 {
        stroke: #000;
      }

      .cls-7 {
        stroke: #fff;
        stroke-width: 1.26px;
      }

      .cls-7, .cls-6 {
        fill: #fff;
      }

      .cls-5, .cls-8 {
        fill: #1d1d1b;
      }

      .cls-3 {
        stroke-width: 2.05px;
      }

      .cls-4 {
        stroke-width: 1.9px;
      }

      .cls-4, .cls-8 {
        stroke: #1d1d1b;
      }
    </style>
  </defs>
  <g>
    <path class="cls-1" d="M507.27,578.57c-18,15.82-40.45,25.69-63.99,29.65-7.02,1.18-16.22,1.84-24.37,1.21-.77-.06-1.55-.16-2.32-.22-1.99-.13,1.69.35-.14-.03-1.27-.26-2.54-.46-3.79-.83-1.62-.47-3.2-1.11-4.79-1.69-2.71-1-5.41-2.02-8.09-3.09-.78-.31-1.57-.63-2.35-.95-.5-.2-2.45-1.02-.97-.39-1.99-.84-3.96-1.71-5.93-2.6-8.83-4.01-17.45-8.5-25.63-13.72s-16.17-11.43-22.68-19.23c-5.84-7-8.56-14.88-10.98-24.32-3.19-12.47-5.1-25.29-5.62-38.15-.53-13.04-2.45-28.75,3.36-40.86,5.41-11.26,16.6-18.34,27.22-24.15,13.54-7.4,29.59-8.46,44.49-11.48,8.81-1.78,16.2-7.59,22.72-13.49,7.32-6.63,13.83-14.17,20.05-21.82,3.01-3.7,5.93-7.47,8.84-11.24,1.01-1.31,2.02-2.63,3.02-3.95.66-.86,3.35-4.17,1.28-1.69,5.28-6.32,12.08-11.31,18.7-16.15,6.95-5.08,15.97-11.69,22.63-14.54,9.66-4.12,19.82-7.23,29.84-10.32,3.49-1.07,6.99-2.29,10.54-3.13.48-.11.98-.17,1.46-.3,2.09-.56-1.81.12.07-.03,1.67-.13,3.33-.33,5-.44,9.1-.6,18.25-.55,27.36-.37,10.84.21,21.68.71,32.48,1.58,9.39.76,15.03,1.01,23.56,3.21,10.29,2.64,20.1,7.26,29.51,12.12,10.01,5.17,20.27,10.93,28.95,18.04,16.48,13.49,30.27,32.32,40.6,50.76,3.83,6.83,4.77,10.17,7.7,17.67,3.49,8.94,6.81,17.95,10.05,26.99,4.01,11.2,7.72,22.06,10.04,33.74,1.72,8.63,3.4,18.43,4.31,26.11.55,4.61.99,9.23,1.14,13.87.05,1.78.07,3.57-.01,5.36-.04.78-.11,1.55-.16,2.32-.08,1.19.13-.91.14-.93-.1.4-.1.84-.24,1.23-3.37,9.41-8.42,17.49-16.71,23.34-8.23,5.81-19.09,7.94-29.02,9.51-1.34.21-1.44.21-1.82.25-.97.11-1.94.2-2.91.27-1.79.12-3.57.11-5.36.08-5.05-.08-10.1-.29-15.14-.63-5.07-.35-10.12-.78-14.88-1.62-2.22-.39-4.43-.84-6.6-1.46-.92-.26-1.84-.55-2.73-.89-1.14-.43.34.12.46.18-.75-.38-1.49-.79-2.21-1.22-8.56-5.17-16.02-15.63-19.44-24.34-.35-.89-.73-3.4-1.35-4.72-.57-1.23.11,1.79.16,1.26s-.12-1.13-.16-1.65c-.21-2.9-.37-5.8-.49-8.71-.74-18.11-.84-36.25-.96-54.38-.04-6.11-.07-12.23-.08-18.34,0-12.87-20-12.89-20,0,0,16.93.15,33.86.45,50.78.29,16.24-1.08,33.57,6.37,48.46,5.7,11.4,14.78,22.78,25.94,29.22,9.87,5.7,22.41,6.44,33.51,7.28,21.3,1.62,44.93.71,63.88-10.46,11.25-6.64,20.06-17,25.26-28.91,3.91-8.95,4.53-17.2,3.79-26.87-1.34-17.48-3.93-35.87-8.77-52.77-4.33-15.1-10.33-29.94-15.97-44.58-3.12-8.1-6.16-16.4-10.15-24.12-6.29-12.16-14.99-23.54-23.51-34.21-14.08-17.61-30.78-30.8-50.66-41.45-11.03-5.91-22.62-11.4-34.62-15.03-9.11-2.76-18.84-3.6-28.28-4.46-20.95-1.89-42.4-2.9-63.42-1.51-7.68.51-14.52,2.2-21.85,4.45-11,3.38-21.99,6.93-32.6,11.42-9.61,4.07-18,10.3-26.36,16.47-7.45,5.5-15.77,11.1-21.59,18.43-5.8,7.31-8.73,11.53-14.56,18.62-6.59,8-13.51,15.93-21.49,22.58-.28.24-2.27,1.78-1.21.99-.9.67-1.83,1.31-2.77,1.92-.76.49-1.53.95-2.32,1.39-.5.27-1,.52-1.51.78-1.31.66,1.51-.49.19-.09-6.88,2.1-14.32,2.85-21.38,4.23-8.36,1.62-16.47,3.28-24.3,6.71-7.11,3.11-13.71,7.23-20.06,11.67-11.98,8.38-21.32,19.1-25.39,33.39-2.3,8.07-2.44,16.61-2.29,24.94.13,7.3.06,14.6.61,21.89,1.89,24.95,6.19,52.39,23.25,71.77,14.19,16.12,34.11,27.21,53.54,35.79,12.21,5.4,24.29,10.84,37.77,11.58,22.29,1.22,45.11-4.54,65.3-13.63,13-5.86,24.87-13.8,35.57-23.21,4.06-3.57,3.65-10.5,0-14.14-4.03-4.03-10.07-3.58-14.14,0h0Z"/>
    <path class="cls-3" d="M418.02,487.17c-8.97-12.35-33.82-12.68-47.95-8.26-28.1,8.03-11.22,41.48,7.13,51.37,8.55,4.91,18.81,2.84,26.23-3.34,10.54-8.35,22.32-26.97,14.67-39.63l-.09-.13Z"/>
    <path class="cls-1" d="M317.94,563.31c11.72,12.8,29.06,28.79,47.95,26.3,9.32-1.23,16.76-7.44,21.03-15.68,2.65-5.11,4.42-10.67,5.54-16.3.73-3.64,1.2-7.33,1.67-11.01.23-1.77.4-3.56.66-5.33.1-.67,1.09-3.96-.07-1.54-1.2,1.2-2.39,2.39-3.59,3.59l.29-.2h-10.09l.35.16c-1.2-1.2-2.39-2.39-3.59-3.59,1.83,2.57,2.88,7.88,4.23,11.35,1.85,4.74,3.93,9.44,6.81,13.65,5.95,8.67,14.03,15.17,24.25,18.04,9.34,2.63,19.69,2.39,29.01-.19,11.07-3.07,19.22-9.66,26.79-18.07,8.6-9.54-5.5-23.73-14.14-14.14-5.27,5.84-10.23,10.78-17.97,12.92-6.24,1.73-12.84,1.87-19.05-.01-6.44-1.95-10.78-6.72-13.97-12.46-3.62-6.52-4.61-14.21-8.3-20.63-2.65-4.61-8.24-6.87-13.23-4.81-4.29,1.77-6.19,5.73-6.94,10.07-1.4,8.04-1.73,16.14-4.2,23.98-.83,2.63-1.37,3.97-2.78,6.29-.35.57-.71,1.15-1.11,1.68.24-.32.95-1.35-.21.16-.27.34-.63.62-.94.93-.81.84,1.28-.69-.27.26-.48.3-2.69,1.32-1.62.94,1.66-.6-3.11.51-1.22.27,1.28-.16-1.3-.06-1.83-.05-.48,0-1.92-.25.21.09-.55-.09-1.13-.18-1.67-.34-1.29-.37-2.58-.72-3.84-1.2-1.49-.56,1.26.6-.22-.1-.74-.35-1.47-.72-2.2-1.1-2.64-1.41-5.16-3.06-7.56-4.84-4.19-3.11-9.83-8.65-14.04-13.24-8.71-9.51-22.83,4.66-14.14,14.14h0Z"/>
    <path class="cls-1" d="M437.85,677.76c6.3-18.48,12.59-36.95,18.89-55.43,4.16-12.21-15.15-17.45-19.29-5.32-6.3,18.48-12.59,36.95-18.89,55.43-4.16,12.21,15.15,17.45,19.29,5.32h0Z"/>
    <path class="cls-1" d="M691.24,597.56c7.61,26.02,15.23,52.03,22.84,78.05,3.61,12.33,22.91,7.08,19.29-5.32-7.61-26.02-15.23-52.03-22.84-78.05-3.61-12.33-22.91-7.08-19.29,5.32h0Z"/>
    <ellipse class="cls-2" cx="473.7" cy="441.62" rx="14.59" ry="19.49"/>
    <ellipse class="cls-2" cx="545.35" cy="449.36" rx="14.59" ry="19.49"/>
  </g>
  <g>
    <path class="cls-4" d="M315.32,461.39s-5.06-114.28-5.41-116.66l-10.93-74.37c-1.18-8.02-11.06-11.19-16.69-5.36l-61.66,63.89c-.61.64-1.1,1.33-1.51,2.04h-108.5c-.26-1.3-.8-2.59-1.67-3.8l-51.9-72.04c-4.74-6.58-14.97-4.85-17.28,2.92l-21.44,72.04c-.09.29-17.4,131.33-17.4,131.33,0,32.33,15.95,60.94,40.41,78.39l-32.34,122.98c-3.14,11.93,4.83,23.9,15.92,23.9h240.9c10.36,0,18.19-10.54,16.33-21.98l-19.17-117.63c31.08-15.96,52.34-48.33,52.34-85.66ZM114.84,447.7c-9.84,0-17.82-7.98-17.82-17.82s7.98-17.82,17.82-17.82,17.82,7.98,17.82,17.82-7.98,17.82-17.82,17.82ZM231.4,447.7c-9.84,0-17.82-7.98-17.82-17.82s7.98-17.82,17.82-17.82,17.82,7.98,17.82,17.82-7.98,17.82-17.82,17.82Z"/>
    <g>
      <path class="cls-7" d="M193.17,468.87c-5.53-7.61-20.84-7.81-29.55-5.09-17.31,4.95-6.92,25.56,4.39,31.65,5.27,3.03,11.59,1.75,16.16-2.06,6.5-5.15,13.75-16.62,9.04-24.42l-.05-.08Z"/>
      <path class="cls-6" d="M146.06,527.74c17.68,5.54,29.26-15.2,33.84-29.09h-11.13c3,15.2,13.82,33.17,31.77,28.47,7.18-1.88,4.13-13.01-3.07-11.13-10.85,2.84-15.94-12.13-17.57-20.41-1.17-5.94-9.47-5.02-11.13,0-2.37,7.17-9.4,24.24-19.65,21.03-7.1-2.22-10.14,8.91-3.07,11.13h0Z"/>
    </g>
  </g>
  <g>
    <circle class="cls-8" cx="386.86" cy="125.12" r="29.23"/>
    <circle class="cls-8" cx="490.76" cy="125.12" r="29.23"/>
    <circle class="cls-8" cx="590.92" cy="125.12" r="29.23"/>
  </g>
  <path class="cls-5" d="M592.91.35h-252.22c-17.71,0-34.6.27-50.69,9.36-15.03,8.49-26.31,22.2-32.42,38.26-3.53,9.28-4.41,19.06-4.41,28.89v90.07c0,6.1-.19,12.21.56,18.27,4.41,35.74,34.91,63.44,71.04,63.98,34.93.52,69.9,0,104.84,0h3.71c-3.33-3.33-6.67-6.67-10-10,0,26.3,0,52.59,0,78.89,0,8.8,10.86,13.01,17.07,7.07,23.32-22.32,46.64-44.63,69.96-66.95,4.16-3.98,8.32-7.96,12.48-11.94-2.36.98-4.71,1.95-7.07,2.93,28.97,0,57.94,0,86.91,0,13.56,0,27.13,0,40.69,0,16.96,0,33.31-3.69,47.12-14.06,18.65-14,29.52-35.41,29.68-58.76.07-11.01,0-22.03,0-33.04v-50.7c0-11.17.64-22.6-1.34-33.64-4.53-25.28-23.61-46.16-47.53-54.68-16.94-6.04-36.72-3.94-54.39-3.94h-23.98c-12.87,0-12.89,20,0,20h48.5c9.57,0,18.78.43,27.7,4.5,12.24,5.58,22.38,15.86,27.34,28.43,2.97,7.53,3.69,15.18,3.69,23.16,0,33.41.28,66.83,0,100.25-.22,26.66-21.01,50.51-48.1,52.35-12.98.88-26.21.14-39.2.14-22.73,0-45.47,0-68.2,0-7.87,0-15.75,0-23.62,0-3.02,0-6.31-.33-9.13.86-3.5,1.47-6.14,4.87-8.88,7.49-24.79,23.72-49.57,47.44-74.36,71.16-.8.77-1.61,1.54-2.41,2.31,5.69,2.36,11.38,4.71,17.07,7.07,0-26.3,0-52.59,0-78.89,0-5.41-4.58-10-10-10h-102.42c-7.39,0-14.48-.28-21.64-2.58-13.63-4.38-24.69-14.52-31.01-27.26-7.21-14.54-5.08-32.54-5.08-48.31v-64.46c0-4.64-.04-9.28,0-13.92.14-14.14,5.72-27.49,15.84-37.4,9.78-9.58,22.84-14.78,36.49-14.91,3.2-.03,6.4,0,9.59,0h257.82c12.87,0,12.89-20,0-20Z"/>
</svg>