<?xml version="1.0" encoding="UTF-8"?>
<svg id="Capa_1" data-name="Capa 1" xmlns="http://www.w3.org/2000/svg" viewBox="0 0 104.64 116.37">
  <defs>
    <style>
      .cls-1 {
        fill: #000;
        fill-rule: evenodd;
        stroke-width: 0px;
      }
    </style>
  </defs>
  <path class="cls-1" d="M92.16.06h-24.47c-5.71,0-6.97-.93-7.78,4.69-1.71,11.94-3.43,23.88-5.14,35.82-2.26,15.75-1.5,15.62-4.03,0-.89-5.49-1.78-10.98-2.66-16.46-1.16-7.16-2.16-13.18-3.11-18.74C43.96-.47,43.53.05,37.91.05H12.88C3.8.05.29,1.42.29,10.11v35.28s.05-.06.07-.09c1.05-1.29,1.88-2.28,3.11-3.66,1.91-2.14,4.28-4.75,6.7-6.64,3.54-2.77,7.72-5.15,12.23-4.14,3.24.72,6.33,3.12,8.01,5.96.39.66.75,1.31,1.22,1.81.46.21,9.39.03,10.88-.13,3.74-.41,1.25,3.51,1.15,4.12-.05.3-.07.61-.09.92-.14,3.17-.65,7.29-2.2,10.07-1.63,2.93-3.99,3.93-7.8,1.62-4.1-2.48-6.45-6.33-7.49-7,.1,1.04,1.1,2.88,1.48,4.07,1.43,4.44,2.59,10.84-4.28,9.96-2.86-.37-5.62-1.88-7.29-3.68-2.07-2.25-2.74-4.31-2.86-8.05-.39,2.69-.5,5.19.24,7.48.55,1.69,1.56,3.27,3.28,4.72.38.32.49.4.92.69.32.24.64.47.96.71-.1.88-.75,1.64-1.1,2.34-3.8,7.68-1.42,11.31-1.1,18.72.5,11.66-4.03,22.22-12.59,30.07-.2.18-.59.49-1.02.84h14.59c11.35,0,12.61,1.53,12.63-10.16.02-12.5.04-24.99.07-37.49l9.61,36.85c2.82,10.8,3.01,10.8,13.34,10.8h1.57c9.77,0,8.9-1.03,11.49-11.47,2.98-11.99,5.95-23.98,8.92-35.97l.03,19.37c1.44-1.36,3.19-2.43,5.48-3.09,1.81-.52,2.78-.21,4.02-.98,1.02-.64.41-2.61-.72-3.17-2.08-1.03-2.77-1.84-2.6-4.42.98-.85,1.53-.96,1.75-2.93.15-1.35.76-2.02,1.54-2.56.9-.62,3.14-1.27,3.34-1.44.41-.34-.76-3.38,1.05-4.05.63.21,4.7,4.04,5.28,4.67,2.87,3.13,5.35,6.68,6.45,10.73.25.92.42,1.85.49,2.78.36,4.94-2.58,14.41-3.14,20.39-.12,1.32.05,6.91,1.64,7.78,1.37.75,2.68-.01,2.71,2.71,0,.16,0,.33.01.5,2.1-1.36,2.38-4.33,2.38-10.75V11.99C104.64,2.62,101.42.06,92.16.06Z"/>
</svg>