<?xml version="1.0" encoding="UTF-8"?>
<svg id="Capa_1" data-name="Capa 1" xmlns="http://www.w3.org/2000/svg" viewBox="0 0 510.28 139.99">
  <defs>
    <style>
      .cls-1 {
        fill: #000;
        stroke-width: 0px;
      }
    </style>
  </defs>
  <path class="cls-1" d="M177.77,23.51h-11.5c-9.91,0-10.28-2.01-11.04,7.33-1.13,13.95-2.27,27.89-3.41,41.84-1.84,22.58-.92,23.32-4.72.43-2.34-14.09-4.68-28.17-7.01-42.26-1.55-9.35-2.33-7.34-12.3-7.34h-7.97c-10.71,0-12.79-1.9-10.52,8.27,5.71,25.54,11.42,51.08,17.13,76.62,1.41,6.32,2.17,9.86,2.17,10.7,0,1.68-.79,2.77-2.34,3.26-1.13.36-7.07.6-12.99.69-6.35.11-6.73-1.07-6.73,5.36v6.13c0,6.51,1.72,4.97,8.88,4.97h21.47c9.58,0,16.58-.66,20.94-1.97s7.79-3.33,10.22-6.12c2.46-2.76,4.22-6.28,5.27-10.54s2.36-12.25,3.95-23.97l8.61-63.61v-.03c1.34-10.02,1.08-9.76-8.11-9.76h0Z"/>
  <path class="cls-1" d="M92.38,23.14h-24.47c-5.71,0-6.96-.93-7.77,4.69-1.71,11.94-3.43,23.88-5.14,35.82-2.26,15.76-1.5,15.62-4.03,0-.88-5.49-1.77-10.98-2.66-16.47-.72-4.48-1.38-8.5-2.01-12.26-.25-1.5-.5-2.96-.74-4.38-.12-.71-.24-1.41-.36-2.11-.19-1.1-.35-1.97-.54-2.66-.19-.69-.39-1.21-.65-1.59-.86-1.27-2.35-1.06-5.86-1.06H13.12c-6.82,0-10.5.77-11.91,4.81-.47,1.35-.69,3.06-.69,5.24v37.5c.71-.89,1.45-1.92,1.77-2.3,1.05-1.29,1.88-2.28,3.11-3.67,1.91-2.14,4.28-4.75,6.7-6.64,3.54-2.77,7.72-5.15,12.23-4.14,3.24.72,6.33,3.12,8.01,5.96.39.66.75,1.31,1.22,1.81.46.21,9.39.03,10.88-.13,3.74-.41,1.25,3.51,1.15,4.12-.05.3-.07.61-.09.92-.14,3.17-.65,7.29-2.2,10.07-1.63,2.93-3.99,3.94-7.8,1.62-4.1-2.48-6.45-6.33-7.49-7,.11,1.03,1.1,2.88,1.48,4.06,1.43,4.44,2.59,10.84-4.28,9.96-2.86-.37-5.62-1.87-7.29-3.68-2.07-2.25-2.74-4.31-2.86-8.05-.39,2.69-.5,5.19.24,7.48.55,1.69,1.56,3.26,3.28,4.72.38.32.49.4.93.69.32.23.64.47.97.7-.11.88-.75,1.64-1.1,2.34-3.8,7.68-1.42,11.31-1.1,18.72.51,11.66-4.03,22.22-12.59,30.07-.2.18-.6.5-1.04.85h12.9c3.55,0,6.11.15,7.95,0,2.22-.18,3.4-.8,4.02-2.62.1-.3.19-.64.27-1.02.04-.19.07-.38.1-.59.06-.41.11-.87.15-1.36.1-1.24.13-2.74.13-4.56.02-12.5.04-24.99.06-37.49l9.61,36.85c.26,1.01.5,1.93.73,2.76.15.55.3,1.07.44,1.55.07.24.14.47.21.69.36,1.11.71,2.01,1.1,2.74.39.73.83,1.28,1.36,1.7,1.69,1.35,4.33,1.35,9.49,1.35h1.57c2.44,0,4.22-.06,5.55-.32,1-.19,1.75-.5,2.34-.97.1-.08.19-.16.28-.25.18-.18.35-.37.5-.59.54-.76.92-1.78,1.3-3.14.33-1.17.65-2.6,1.07-4.35.14-.58.29-1.2.45-1.85,2.97-11.99,5.95-23.98,8.92-35.97l.06,35.76c0,2.96-.04,5.17.06,6.82.06,1.03.18,1.84.4,2.48.09.26.19.48.32.69,1.05,1.73,3.51,1.69,9.22,1.69h8.71c4.73,0,7.43-.14,8.96-1.44.1-.09.2-.18.29-.28.28-.29.51-.64.7-1.04.39-.8.63-1.83.77-3.17.05-.44.09-.92.12-1.43.07-1.28.09-2.78.09-4.55V33.37h-.01c0-9.37-3.23-10.23-12.49-10.23h.03Z"/>
  <path class="cls-1" d="M314.32,139.31c-.24-.44-.47-.9-.7-1.41h0s-7.83-11.8,2.37-32c2.82-5.59,5.75-10.5,10.78-13.65v-34.65c0-9.26-.62-15.94-1.81-20.04-1.2-4.12-3.92-7.61-8.19-10.43-4.24-2.85-9.65-4.27-16.12-4.27-4.95,0-9.41,1.07-13.46,3.22-4.04,2.13-7.67,5.35-10.87,9.62-5.89-8.57-13.91-12.84-24.14-12.84-5.24,0-9.93,1.07-14.01,3.22-4.11,2.13-7.63,5.35-10.61,9.62l.21-3.85c.51-10.96-.38-8.6-12.75-8.6h-14.74c-9.48,0-9.8-1.07-9.8,8.87v98.87c0,10.27.91,8.31,11.5,8.31h14.89c10.81,0,10.7,1.39,10.7-9.8V59.57c0-5.43.06-9,.19-10.66.13-1.68.77-3.11,1.97-4.27,1.23-1.16,2.66-1.74,4.37-1.74,2.71,0,4.38,1.11,4.98,3.31.6,2.21.91,8.86.91,19.93v63.37c0,11.03.42,9.8,10.97,9.8h14.53c11.89,0,11.58,1.13,11.58-11.5v-63.56c0-9.7.41-15.68,1.2-17.95.79-2.26,2.55-3.4,5.24-3.4s4.35,1.17,5.08,3.46c.73,2.29,1.1,8.25,1.1,17.89v63.56c0,12.23-.1,11.5,11.23,11.5"/>
  <path class="cls-1" d="M414.76,31.29c-2.03-2.68-4.98-4.74-8.83-6.22-3.88-1.48-8.45-2.21-13.69-2.21-4.57,0-8.81.81-12.69,2.44-3.91,1.63-7.44,4.1-10.61,7.41h0V8.99c0-6.14-.64-8.24-4.88-8.81-.65-.09-1.39-.14-2.22-.16C361.42,0,360.98,0,360.52,0h-21.12C338.99,0,338.59,0,338.21.02c-.76.02-1.44.08-2.07.16-4.06.55-5.46,2.5-5.46,7.82v82.34c.54-.2,1.1-.39,1.69-.56,2.9-.83,4.45-.32,6.43-1.56,1.64-1.02.66-4.17-1.15-5.07-3.33-1.65-4.44-2.94-4.16-7.08,1.57-1.35,2.45-1.54,2.8-4.69.24-2.16,1.22-3.24,2.47-4.1,1.45-.99,5.04-2.03,5.36-2.3.67-.55-1.21-5.41,1.68-6.49,1,.34,7.52,6.46,8.45,7.47,4.6,5.02,8.57,10.7,10.33,17.18.4,1.47.67,2.96.78,4.45.58,7.91-4.12,23.08-5.02,32.65-.2,2.11.08,11.07,2.62,12.47,1.84,1.01,3.62.32,4.17,2.66l1.74-6.03c3.23,3.54,6.83,6.19,10.71,7.96,3.91,1.77,8.12,2.67,12.62,2.67,6.28,0,11.68-1.48,16.28-4.47,4.57-2.99,7.45-6.5,8.71-10.57,1.23-4.03,1.84-10.22,1.84-18.5v-50.94c0-8.33-.19-13.79-.61-16.35-.42-2.55-1.62-5.17-3.66-7.84h0ZM380.78,57.04v47.59h0c0,6.71-.36,10.95-1.1,12.69-.75,1.77-2.36,2.64-4.76,2.64s-3.98-.85-4.79-2.56c-.81-1.69-1.2-5.58-1.2-11.65v-48.72h0c0-6.28.36-10.23,1.07-11.77.71-1.57,2.2-2.35,4.63-2.35s4.08.9,4.89,2.67c.84,1.81,1.26,5.61,1.26,11.45h0Z"/>
  <path class="cls-1" d="M508.27,44.18c-1.32-5.98-5.27-11.03-11.84-15.13-6.57-4.13-16.35-6.19-29.29-6.19-10.84,0-19.61,1.83-26.37,5.46-6.77,3.63-11.3,7.81-13.53,12.55-2.24,4.77-3.37,11.51-3.37,20.25,0,9.56,1.21,7.58,11.26,7.58h13.07l.02.02c10.63,0,11.59,2,11.59-8.26v-3.56c0-6.31.32-10.23.97-11.71.61-1.51,2.23-2.27,4.85-2.27,2.3,0,3.95.9,4.92,2.67,1,1.8,1.49,5.63,1.49,11.53,0,4.73-.46,7.84-1.33,9.38-.91,1.54-7.64,4.51-20.23,8.95-11.78,4.07-19.16,7.64-22.14,10.72-2.98,3.08-4.47,8.83-4.47,17.28v9.3c0,11.41,2.78,18.79,8.38,22.19,5.6,3.37,11.75,5.05,18.45,5.05,5.15,0,9.55-1.02,13.24-3.05s6.73-5.05,9.06-9.12v5.18c0,8.3,2.4,6.31,11.41,6.31h12.75c10.31,0,13.12,1.99,13.12-7.88v-50.24c0-18.68-.68-31.03-2.01-37.01h0ZM472.01,84.2v23.24c0,5.7-.36,9.18-1.1,10.52-.74,1.33-2.17,2-4.72,2s-4.27-.85-5.11-2.56c-.87-1.71-1.29-5.46-1.29-11.33,0-5.12.49-9.01,1.49-11.74.97-2.73,4.56-6.1,10.74-10.14h-.01,0Z"/>
</svg>