<?xml version="1.0" encoding="UTF-8"?>
<svg id="Perdido" xmlns="http://www.w3.org/2000/svg" viewBox="0 0 710.65 726.56">
  <defs>
    <style>
      .cls-1, .cls-2 {
        fill: #000;
      }

      .cls-1, .cls-3 {
        stroke-width: 0px;
      }

      .cls-2 {
        stroke: #1d1d1b;
        stroke-linecap: round;
        stroke-miterlimit: 10;
        stroke-width: 1.46px;
      }

      .cls-3 {
        fill: #fff;
      }
    </style>
  </defs>
  <path class="cls-1" d="M690.65,355.31c-.14,69.68-21.84,137.81-62.19,194.64-38.83,54.7-94.74,97.45-157.8,120.36-66.43,24.13-139.74,26.86-207.71,7.44-65.21-18.63-123.56-57.32-166.75-109.53-43.37-52.43-70.01-118.48-75.18-186.31-5.33-69.94,11.07-140.35,47.47-200.36,35.12-57.91,87.63-104.19,149.27-132.18,63.38-28.78,136.19-36.66,204.35-22.75,66.75,13.62,128.22,47.58,175.38,96.73,47.46,49.47,78.7,112.94,89.34,180.64,2.67,16.96,3.8,34.16,3.84,51.33.03,12.87,20.03,12.89,20,0-.15-73.38-22.93-146.06-65.68-205.8-41.77-58.36-100.36-103.23-167.74-128.02-69.88-25.71-148.04-28.34-219.6-7.9-68.5,19.57-130.68,60.2-176,115.18C34.89,185.47,6.59,255.42,1.01,328.72c-5.57,73.21,12.12,147.67,50.2,210.45,36.88,60.82,92.19,110.33,157.05,139.63,68.26,30.84,145.05,39.45,218.49,24.62,70.34-14.2,135.77-50.64,185.32-102.49,49.73-52.03,83.36-119.12,94.24-190.34,2.8-18.31,4.31-36.76,4.34-55.29.03-12.87-19.97-12.89-20,0Z"/>
  <path class="cls-1" d="M485.38,668.31c-14.74,16.36-36.49,17.8-57.31,19.53-28.39,2.36-57.23,1.68-85.7,1.48-26.85-.19-54.46.71-80.9-4.69-3.18-.65-6.35-1.35-9.45-2.32-3.39-1.07.85.57-.76-.27-.67-.35-1.3-.74-1.94-1.13,3.21,1.96-.36-.33-.06-.32.35.01,1.63,1.85.28.12-.41-.52-1.06-2.39-.04.16-.45-1.13-.83-2.29-1.21-3.45-1.55-4.65-3.16-9.22-5.11-13.73-.29-.67-2.56-6.12-1.39-3.09-.61-1.59-1.23-3.18-1.79-4.79-2.44-7.08-4.18-14.4-5.63-21.75-1.79-9.08-2.85-16.56-3.78-24.67-2.25-19.75-3.31-39.64-3.71-59.52-.39-19.28-.15-38.58.88-57.84.44-8.16,1.02-16.32,1.85-24.45.18-1.74.37-3.48.57-5.21.09-.75.74-5.41.27-2.28.89-5.96,1.78-11.91,2.7-17.86,1.46-9.43,3.01-18.86,5.17-28.16.95-4.09,2.02-8.15,3.29-12.15.55-1.73,1.14-3.45,1.76-5.16.37-1,.76-2,1.16-2.99-.83,2.05.57-1.25.75-1.65,1.53-3.3,3.27-6.5,5.22-9.56,2.84-4.46,3.23-4.91,6.6-8.58,6.24-6.78,11.53-10.79,19.1-15.5,30.53-19.01,69.12-25.74,105.75-23.17,16.7,1.17,35.75,5.41,50.42,13.02,8.57,4.44,14.17,8.31,20.65,14.89,7,7.1,12.71,15.29,17.35,24.09,9.67,18.34,13.62,39.85,16.87,60.56,2.79,17.79,5.32,31.53,5.85,48.99,1.02,33.59-1.38,67.35-3.9,100.82-1.87,24.9-4.11,49.77-6.71,74.6-.14,1.34-.28,2.68-.43,4.02-.66,6.08,5.67,11.3,11.3,11.3,6.66,0,10.64-5.21,11.3-11.3,5.99-54.96,11.16-110.55,11.22-165.86.02-16.3-1.38-31.96-3.77-48.07-3.42-23.02-6.2-46.55-14.31-68.51-7.69-20.81-19.95-40.61-37.62-54.38-15.84-12.35-34.87-19.93-54.52-23.7-40.9-7.86-85.16-2.86-123.28,13.88-16.92,7.43-33.47,18.27-45.09,32.81-11.46,14.33-17.73,31.31-21.56,49.11-8.19,38.11-11.37,77.05-11.62,115.96-.26,39.94.95,81.35,10.14,120.38,1.82,7.72,4.16,15.24,7.33,22.51,3.18,7.29,4.74,15.91,9.02,22.65,6.14,9.69,17.88,12.1,28.39,14.02,14.89,2.72,30.03,3.83,45.14,4.28,29.5.87,59.12.81,88.63.39,14.43-.21,28.83-.71,43.21-2.01,11.82-1.07,23.93-2.3,35.23-6.13s21.94-10.23,30.16-19.34c9.72-10.78-6.22-26.81-15.98-15.98Z"/>
  <path class="cls-1" d="M324.39,138.91h39.53c6.21,0,10.13-4.25,10.13-9.15,0-5.88-4.25-9.8-9.8-9.8s-9.48,3.92-9.48,8.82h-64.36c0-39.86,29.08-67.63,76.13-67.63,42.15,0,69.92,25.48,69.92,63.06,0,27.12-16.99,50.31-47.37,57.18v33.33h-64.69v-75.8ZM357.06,223.53c20.58,0,35.61,14.05,35.61,34.3s-15.03,34.63-35.61,34.63-36.27-14.7-36.27-34.63,15.36-34.3,36.27-34.3Z"/>
  <ellipse class="cls-1" cx="300.33" cy="445.78" rx="27.98" ry="23.28" transform="translate(-175.28 696.2) rotate(-83.8)"/>
  <ellipse class="cls-1" cx="421.44" cy="443.06" rx="23.28" ry="27.98" transform="translate(-45.39 48.11) rotate(-6.2)"/>
  <path class="cls-2" d="M321.66,496.56c10.73-15.05,43.36-15.04,60.32-10.2,7.79,2.32,15.14,6.11,18.03,13.76,5.4,17.9-11.21,41.77-27.04,51.16-11.01,6.59-23.2,3.58-32.57-4.61-12.45-10.46-28.17-34.67-18.84-49.97l.08-.13Z"/>
  <g>
    <path class="cls-1" d="M321.07,596.98c12.62-8.27,26.99-17.08,42.22-17.21,15.27-.13,29.66,8.21,42.5,16.14,10.98,6.78,21.04-10.51,10.09-17.27-15.83-9.77-33.49-19.02-52.59-18.87-19.2.16-36.67,9.69-52.31,19.94-10.72,7.03-.71,24.35,10.09,17.27h0Z"/>
    <path class="cls-1" d="M370.32,568.79v-25.84c0-12.87-20-12.89-20,0v25.84c0,12.87,20,12.89,20,0h0Z"/>
  </g>
  <g>
    <path class="cls-1" d="M274.89,338.79c2.34-1.28,4.8-2.51,7.34-3.7-12.58-20.11-41.49-39.01-64.83-36.7-20,1.88-33.99,17.72-46.95,32.92-6.04,7.23-12.32,15.29-18.16,23.04-17.21,23.48-35.23,45.35-46.87,69.24-6.22,12.82-8.11,27.62-1.71,40.77,9.6,20.08,34.92,38.25,56.62,41.75l.14.02c23.65,3.19,38.28-10.11,54.44-28.53.41-.47.82-.96,1.22-1.44.72-12.32,1.76-23.33,3.05-32.17,8.53-53.45,11.54-81.27,55.69-105.19Z"/>
    <path class="cls-1" d="M277.02,342.44c2.42-1.3,4.86-2.52,7.34-3.7,2.01-.95,2.66-3.98,1.51-5.78-10.67-16.63-27.92-29.82-46.69-35.96-19.2-6.27-37.39-1.55-52.62,11.3-17.61,14.87-31.12,34.9-44.82,53.22-14.61,19.53-30.52,39.11-40.68,61.47-4.42,9.73-6.62,20.48-4.92,31.12,1.62,10.18,7.08,19.16,13.71,26.88,12.31,14.3,30.64,26.25,49.51,29.2s36.07-6.3,49.48-19.81c3.48-3.5,7.47-7.19,10.29-11.25,1.5-2.16,1.3-4.21,1.47-6.83.24-3.65.51-7.31.84-10.96.92-10.4,2.5-20.67,4.18-30.98,2.83-17.41,5.49-35.77,13.49-51.71,8.21-16.37,22.09-27.57,37.91-36.23,4.77-2.61.51-9.9-4.26-7.29-21.88,11.98-38.34,28.61-46.41,52.51-4.12,12.21-6.33,25.01-8.42,37.7-2.78,16.89-4.98,33.7-6,50.81.41-1,.82-1.99,1.24-2.99-7.95,9.35-16.67,19.06-27.7,24.79-10.56,5.49-22.36,5.4-33.47,1.71-23.16-7.69-50.14-29.87-47.87-56.66,1.26-14.83,10.49-28.53,18.45-40.65,8.27-12.58,17.44-24.53,26.46-36.57,9.19-12.29,18.34-24.6,28.43-36.18,8.31-9.52,17.5-19.53,29.47-24.36,26.28-10.62,57.79,10.37,71.65,31.97.5-1.93,1.01-3.85,1.51-5.78-2.48,1.17-4.92,2.4-7.34,3.7-4.79,2.57-.53,9.86,4.26,7.29Z"/>
  </g>
  <g>
    <path class="cls-1" d="M444.78,338.79c-2.34-1.28-4.8-2.51-7.34-3.7,12.58-20.11,41.49-39.01,64.83-36.7,20,1.88,33.99,17.72,46.95,32.92,6.04,7.23,12.32,15.29,18.16,23.04,17.21,23.48,35.23,45.35,46.87,69.24,6.22,12.82,8.11,27.62,1.71,40.77-9.6,20.08-34.92,38.25-56.62,41.75l-.14.02c-23.65,3.19-38.28-10.11-54.44-28.53-.41-.47-.82-.96-1.22-1.44-.72-12.32-1.76-23.33-3.05-32.17-8.53-53.45-11.54-81.27-55.69-105.19Z"/>
    <path class="cls-1" d="M446.91,335.15c-2.42-1.3-4.86-2.52-7.34-3.7l1.51,5.78c12.45-19.41,38.92-38.21,63.09-34.36,12.85,2.05,23.12,10.72,31.8,19.87,10.02,10.55,19.06,22.11,27.76,33.75,9.48,12.69,19.15,25.26,28.2,38.26,8.1,11.63,17.06,24.26,21.42,37.87,4.51,14.06,1.88,27.53-6.92,39.25-7.79,10.37-18.58,18.64-30.19,24.31-11.93,5.82-25.49,8.51-38.2,3.55-12.86-5.02-22.8-16.29-31.52-26.55l1.24,2.99c-1.02-17.1-3.22-33.91-6-50.81-2.09-12.69-4.29-25.48-8.42-37.7-8.07-23.9-24.52-40.52-46.41-52.51-4.77-2.61-9.03,4.68-4.26,7.29,14.16,7.75,27.16,17.57,35.45,31.69,7.65,13.04,10.96,28.11,13.66,42.83,1.76,9.58,3.34,19.22,4.74,28.86.75,5.16,1.27,10.35,1.73,15.54.27,3.02.5,6.04.71,9.07s-.15,6.19,1.6,8.72c5.44,7.89,13.77,15.32,21.42,21.02,7.11,5.3,15.21,9.06,24.05,10.21,19.24,2.52,38.28-6.97,52.85-18.78,16.14-13.08,28.02-31.55,24.6-53.03-1.8-11.3-7.45-21.53-13.25-31.23-6.49-10.85-13.87-21.13-21.4-31.28-14.36-19.37-28.42-39.24-44.74-57.03-15.04-16.4-33.47-28.5-56.56-23.88-21.53,4.31-41.94,19.5-53.69,37.81-1.15,1.8-.49,4.83,1.51,5.78,2.48,1.17,4.92,2.4,7.34,3.7,4.79,2.57,9.06-4.72,4.26-7.29Z"/>
  </g>
  <g>
    <path class="cls-3" d="M159.29,599.96c-12.5,5.62-21.56,13.4-28.39,25.46-5.43,8.67-9.54,18.34-10.28,28.63-.82,10.85-.55,22.31,4.61,32.06,6.9,12.87,24.09,21.14,38.05,15.4,5.07-2.12,9.01-6.47,11.53-11.49,2.43-3.52,6.51-21.56,7.33-9.95.55,7.24.69,16.12,4.62,22.7,3.93,7.27,13.37,10.93,20.44,6.89,8.78-5.12,13.02-19.37,16.57-28.43,1.78-4.49,2.73-9.6,3.89-2.99,1.93,11.94,6.79,32.45,19.14,36.45,14.86,4.76,34.62.69,41.27-14.85,6.76-15.62,4.12-33.99,1.17-50.37-1.46-7.66-3.31-15.43-7.29-22.11-9.59-15.13-27.4-29.34-44.32-35.21-25.25-7.89-54.48-3.54-78.14,7.73l-.18.09Z"/>
    <path class="cls-1" d="M154.25,591.32c-27.9,12.85-44.69,42.76-43.95,73.11.39,16.18,5.79,31.15,19.17,40.88,11.35,8.26,27.5,10.92,40.22,4.19,6.47-3.42,11.45-9.51,14.6-16.02,1.26-2.62,2.19-5.4,3.19-8.13.36-.98.71-1.97,1.1-2.95.45-1.1-.86.62-.11.35.08-.18.18-.35.28-.52.83-1.38-.07-.51-2.7,2.62-1.68.46-3.36.91-5.05,1.37l.22.02c-2.36-.98-4.71-1.95-7.07-2.93-1.32-1.09-2.01-2.38-2.06-3.88-.06-.7-.06-.68,0,.05-.05,1.15.18,2.38.26,3.54.19,2.62.39,5.23.72,7.83.72,5.73,1.94,11.13,4.69,16.27,5.19,9.7,16.18,15.64,27.12,13.75,9.57-1.65,16.32-9.46,20.59-17.71,2.26-4.37,4.05-9,5.79-13.6.65-1.72,1.3-3.44,1.94-5.17.36-.96.88-1.96,1.1-2.97.45-2.02.37-.21-.81.71l-9.73,2.57.31.11c-1.99-1.53-3.98-3.06-5.98-4.6-1.26-2.17-.04,1,.08,1.67.2,1.08.38,2.17.59,3.25.39,1.98.82,3.95,1.31,5.91,1.26,5.01,2.96,9.9,5.11,14.6,4.25,9.27,11.19,16.81,21.32,19.34,20.94,5.23,43.89-3.11,51.83-24.08,4.57-12.06,4.54-25.39,3-38.02-1.53-12.55-3.45-25.38-8.85-36.92-4.9-10.47-13.99-19.63-22.91-26.78-9.64-7.73-20.54-14.42-32.57-17.64-27.37-7.34-57.56-2.52-82.78,9.76-4.86,2.36-6.17,9.27-3.59,13.68,2.9,4.96,8.81,5.96,13.68,3.59,17.79-8.66,39.46-12.68,59.1-9.53,18.7,3,36.02,14.44,47.3,29.58,6.21,8.33,8.04,18.4,9.72,28.45,1.6,9.63,2.86,19.9,1.12,29.59-1.41,7.83-4.15,14.41-11.45,17.72-5.86,2.66-13.22,2.87-19.49.99-1.68-.5-3.22-1.57-4.56-3.34-2.29-3.02-3.75-6.6-4.93-10.14-1.19-3.58-2.11-7.25-2.86-10.94-.83-4.07-1-8.48-3.7-11.85-3.88-4.86-11.09-5.41-15.55-.88-3.15,3.21-4.19,8.38-5.75,12.49-2.36,6.25-4.72,15.63-10.3,19.72-4.72,3.46-8.53-3.65-9.58-8.33-1.73-7.74.96-19.77-7.15-24.51-9.95-5.82-15.36,5.02-18.08,12.43-.48,1.3-.94,2.6-1.42,3.89-.57,1.53,1.03-1.89-.03.08-.18.33-.36.64-.54.96-2.05,3.56-4.06,6.49-8.13,7.79-7.23,2.31-15.5-1.52-20.57-6.73-7.44-7.63-7.59-19.43-7.02-29.4,1.19-20.92,15.24-39.45,33.88-48.03,4.91-2.26,6.12-9.34,3.59-13.68-2.95-5.04-8.76-5.86-13.68-3.59Z"/>
  </g>
  <g>
    <path class="cls-3" d="M570.45,599.96c12.5,5.62,21.56,13.4,28.39,25.46,5.43,8.67,9.54,18.34,10.28,28.63.82,10.85.55,22.31-4.61,32.06-6.9,12.87-24.09,21.14-38.05,15.4-5.07-2.12-9.01-6.47-11.53-11.49-2.43-3.52-6.51-21.56-7.33-9.95-.55,7.24-.69,16.12-4.62,22.7-3.93,7.27-13.37,10.93-20.44,6.89-8.78-5.12-13.02-19.37-16.57-28.43-1.78-4.49-2.73-9.6-3.89-2.99-1.93,11.94-6.79,32.45-19.14,36.45-14.86,4.76-34.62.69-41.27-14.85-6.76-15.62-4.12-33.99-1.17-50.37,1.46-7.66,3.31-15.43,7.29-22.11,9.59-15.13,27.4-29.34,44.32-35.21,25.25-7.89,54.48-3.54,78.14,7.73l.18.09Z"/>
    <path class="cls-1" d="M565.4,608.59c16.93,7.8,29.15,22.94,33.1,41.35,3.42,15.93.78,37.89-17.53,42.76-7.85,2.09-13.5-.82-17.41-7.73-.43-.76-1.13-2.38-.42-.63-.57-1.41-1.06-2.86-1.58-4.29-1.03-2.8-1.97-5.78-3.56-8.31-2.83-4.54-8.27-6.75-13.33-4.62s-6.46,6.83-6.97,11.82c-.65,6.26.51,18.41-6.39,21.8-1.76.86-3.31.65-4.56-.27-3.03-2.2-4.86-6.48-6.41-9.84-3.07-6.66-4.35-15.56-8.86-21.36-3.77-4.85-11.1-5.6-15.55-1.15-3.39,3.39-3.57,8.44-4.48,12.86-1.47,7.18-3.29,15.14-7.79,21.08-2.98,3.94-8.44,4.72-15.06,4.44-5.63-.24-12.19-2.58-15.78-7.19-5.74-7.38-5.73-19-5.24-27.83.58-10.27,2.23-20.96,5.26-30.8,3.1-10.07,10.42-17.93,18.25-24.71,7.97-6.9,17.48-12.71,27.74-15.35,21.78-5.61,46.47-1.82,66.55,7.96,4.85,2.36,10.81,1.32,13.68-3.59,2.57-4.39,1.29-11.31-3.59-13.68-22.95-11.18-49.25-15.78-74.51-11.55-23.8,3.98-45.24,19.46-59.25,38.77-7.43,10.24-10.04,22.64-12.01,34.9-2.05,12.84-3.27,25.67-.84,38.55,2.14,11.35,7.6,21.45,17.4,27.85,8.43,5.5,19.42,7.52,29.33,6.42,12.04-1.33,21.25-6.41,27.25-17.22,2.69-4.84,4.66-10.21,6.15-15.53.67-2.39,1.24-4.8,1.73-7.23.23-1.11.44-2.22.64-3.34.12-.7,1.52-4.89.26-2.72-1.99,1.53-3.98,3.06-5.98,4.6l.31-.11-9.73-2.57c-1-.78-1.04-2.3-1.01-1.27.03.94.76,2.1,1.09,3,.71,1.9,1.43,3.8,2.15,5.7,1.66,4.39,3.38,8.79,5.48,12.99,4.26,8.48,11.08,16.63,20.89,18.32,10.72,1.84,21.36-3.78,26.75-13.08,3.04-5.24,4.31-11,5.05-16.94.29-2.35.5-4.7.67-7.07.09-1.25.17-2.49.26-3.74l.1-1.13c0,1.69-.7,3.16-2.1,4.39l-7.07,2.93.22-.02-5.05-1.37c.44.22-3.66-3.76-2.7-2.62.33.39.41,1.45.22.29-.2-1.22.4,1.06.57,1.52.79,2.12,1.51,4.26,2.36,6.35,2.37,5.87,5.79,11.47,10.75,15.51,11.86,9.65,28.34,9.19,41.34,2,29.57-16.35,27.8-58.84,12.98-84.62-8.13-14.14-18.8-25.1-33.73-31.97-4.9-2.26-10.77-1.39-13.68,3.59-2.52,4.31-1.34,11.41,3.59,13.68Z"/>
  </g>
</svg>